<?xml version="1.0" encoding="UTF-8" standalone="no"?>
<svg
   xmlns:dc="http://purl.org/dc/elements/1.1/"
   xmlns:cc="http://creativecommons.org/ns#"
   xmlns:rdf="http://www.w3.org/1999/02/22-rdf-syntax-ns#"
   xmlns:svg="http://www.w3.org/2000/svg"
   xmlns="http://www.w3.org/2000/svg"
   viewBox="0 0 1071.0439 144.71867"
   height="144.71867"
   width="1071.0439"
   xml:space="preserve"
   id="svg2"
   version="1.1"><metadata
     id="metadata8"><rdf:RDF><cc:Work
         rdf:about=""><dc:format>image/svg+xml</dc:format><dc:type
           rdf:resource="http://purl.org/dc/dcmitype/StillImage" /></cc:Work></rdf:RDF></metadata><defs
     id="defs6"><clipPath
       id="clipPath18"
       clipPathUnits="userSpaceOnUse"><path
         id="path16"
         d="M 0,108.539 H 803.283 V 0 H 0 Z" /></clipPath></defs><g
     transform="matrix(1.3333333,0,0,-1.3333333,0,144.71867)"
     id="g10"><g
       id="g12"><g
         clip-path="url(#clipPath18)"
         id="g14"><g
           transform="translate(677.5439,70.8154)"
           id="g20"><path
             id="path22"
             style="fill:#e30613;fill-opacity:1;fill-rule:nonzero;stroke:none"
             d="m 0,0 c 0.008,0.51 -0.15,1.008 -0.477,1.403 -0.395,0.489 -0.994,0.698 -1.619,0.698 h -10.855 c -0.992,0 -1.851,-0.635 -2.058,-1.619 l -0.831,-4.184 c -2.416,2.206 -4.824,3.613 -8.267,4.969 l -1.099,0.487 c -0.125,0.052 -0.261,0.098 -0.394,0.128 -11.8,2.631 -23.644,-0.979 -33.352,-10.165 -4.851,-4.525 -8.467,-9.772 -10.907,-15.434 l 10.807,58.897 c 0.113,0.477 0.006,1.04 -0.29,1.427 -0.299,0.386 -0.759,0.611 -1.239,0.611 L -75.085,37.2 c -0.451,0 -0.874,-0.256 -1.174,-0.596 0,0 -43.557,-58.11 -50.426,-65.99 2.482,9.7 11.516,64.533 11.516,64.533 0.024,0.108 0.033,0.217 0.033,0.324 0,0.366 -0.12,0.852 -0.35,1.138 -0.3,0.375 -0.747,0.591 -1.22,0.591 l -15.224,0.005 c -0.457,0 -0.889,-0.262 -1.187,-0.609 l -72.98,-85.616 c -1.23,12.467 -7.071,26.044 -7.071,26.044 -9.565,19.933 -30.647,26.676 -43.113,15.974 -0.704,-0.24 -1.37,-0.553 -1.994,-0.942 9.451,13.264 31.285,12.176 45.485,-4.423 0,0 6.502,-7.93 11.125,-19.733 1.233,4.155 1.979,8.474 2.201,12.884 -7.614,10.47 -16.195,16.608 -16.195,16.608 -17.825,12.219 -39.023,7.676 -44.942,-7.374 -0.62,-0.75 -1.132,-1.595 -1.513,-2.514 1.65,16.283 21.093,26.433 41.555,19.272 0,0 9.921,-3.703 19.938,-11.894 -0.142,0.649 -0.279,1.303 -0.441,1.958 -1.084,4.324 -2.664,8.428 -4.683,12.264 -11.675,5.143 -22.035,6.089 -22.035,6.089 -22.073,1.567 -38.498,-14.034 -35.05,-30.594 -0.032,-0.309 -0.045,-0.622 -0.045,-0.935 0,-0.497 0.034,-0.989 0.104,-1.463 -7.399,15.072 4.49,34.352 26.131,38.627 0,0 10.142,1.795 22.629,-0.098 -3.164,3.389 -6.776,6.379 -10.79,8.886 -12.529,-1.496 -21.852,-5.894 -21.852,-5.894 -19.896,-9.847 -26.439,-31.727 -15.28,-44.314 0.355,-0.757 0.802,-1.454 1.325,-2.089 -13.939,9.249 -13.171,32.062 3.508,46.791 0,0 7.863,6.651 19.546,11.356 -4.829,1.475 -9.823,2.225 -14.865,2.257 -9.762,-7.551 -15.473,-15.766 -15.473,-15.766 -12.457,-18.771 -7.201,-41.217 8.926,-46.247 l 0.063,-0.067 0.212,-0.094 c 0.473,-0.334 0.983,-0.622 1.512,-0.866 -16.597,0.965 -27.131,21.091 -19.941,42.305 0,0 3.341,9.23 10.699,18.94 -4.21,-1.122 -8.203,-2.729 -11.938,-4.779 -4.758,-11.524 -5.646,-21.566 -5.646,-21.566 -1.537,-22.234 13.558,-38.834 29.715,-35.687 0.323,-0.035 0.653,-0.051 0.989,-0.051 0.568,0 1.124,0.051 1.664,0.15 -14.822,-7.421 -33.725,4.653 -37.921,26.593 0,0 -1.699,9.927 0,22.301 -3.546,-3.418 -6.661,-7.345 -9.229,-11.734 1.593,-12.192 5.667,-21.141 5.667,-21.141 9.771,-20.348 31.542,-26.952 43.889,-15.275 l 0.085,0.02 0.256,0.186 c 0.545,0.294 1.061,0.64 1.542,1.033 -9.049,-14.304 -31.6,-13.572 -46.146,3.43 0,0 -7.101,9.597 -11.015,20.668 -0.123,0.416 -0.403,1.074 -0.77,1.432 -0.452,0.439 -1.092,0.611 -1.716,0.611 h -10.86 c -0.99,0 -1.789,-0.535 -2.302,-1.639 0,0 -0.588,-1.285 -0.971,-3.825 -2.417,2.203 -5.185,3.457 -7.801,4.599 0,0 -1.406,0.493 -1.542,0.525 -11.741,2.901 -23.676,-0.876 -33.384,-10.062 -5.741,-5.36 -9.733,-11.722 -12.065,-18.606 0,0 -0.079,-0.161 -0.207,-0.441 l 4.957,27.011 c 0.104,0.62 -0.067,1.24 -0.47,1.722 -0.399,0.479 -0.986,0.759 -1.607,0.757 l -12.048,-0.007 c -1.015,-0.003 -1.884,-0.744 -2.063,-1.756 l -11.969,-66.305 c -0.113,-0.62 0.054,-1.26 0.454,-1.746 0.397,-0.489 0.988,-0.45 1.61,-0.452 l 12.027,0.009 c 1.025,-0.002 1.903,0.403 2.077,1.428 l 4.794,26.983 c 0.048,-0.184 0.274,-5.68 0.758,-8.4 1.792,-10.145 10.657,-19.596 20.183,-21.522 8.318,-1.524 17.219,0.604 26.002,6.121 -0.178,-0.966 -0.451,-2.421 -0.451,-2.421 -0.024,-0.132 -0.037,-0.265 -0.037,-0.393 0,-0.492 0.092,-0.75 0.408,-1.137 0.399,-0.489 1.069,-0.635 1.694,-0.635 l 10.779,-0.024 c 1.016,-0.002 1.889,0.385 2.075,1.401 l 9.459,52.179 c 7.116,-8.568 16.396,-15.876 16.396,-15.876 17.916,-12.284 39.25,-7.621 45.028,7.623 0.569,0.669 1.047,1.419 1.421,2.23 -1.681,-16.265 -21.109,-26.39 -41.563,-19.23 0,0 -9.091,3.395 -18.655,10.884 0.077,-0.365 0.153,-0.73 0.241,-1.092 1.126,-4.48 2.78,-8.721 4.904,-12.679 11.139,-4.656 20.746,-5.529 20.746,-5.529 21.899,-1.562 38.247,13.8 35.116,30.231 0.086,0.525 0.131,1.064 0.131,1.619 0,0.204 -0.007,0.407 -0.019,0.607 6.874,-14.99 -4.983,-33.875 -26.378,-38.095 0,0 -9.559,-1.694 -21.539,-0.06 2.866,-3.065 6.1,-5.816 9.667,-8.169 12.42,1.529 21.632,5.872 21.632,5.872 19.48,9.649 26.161,30.832 15.939,43.533 -0.36,0.909 -0.848,1.75 -1.442,2.499 13.373,-9.473 12.407,-31.879 -4.054,-46.421 0,0 -8.011,-6.773 -19.869,-11.489 4.653,-1.586 9.479,-2.528 14.365,-2.756 10.272,7.721 16.295,16.402 16.295,16.402 12.437,18.724 7.231,41.119 -8.813,46.214 -0.62,0.434 -1.295,0.791 -2.01,1.063 16.663,-0.884 27.264,-21.054 20.053,-42.313 0,0 -3.618,-10.021 -11.653,-20.166 0.64,0.139 1.271,0.277 1.911,0.442 4.067,1.053 7.902,2.575 11.472,4.458 4.979,11.774 5.89,22.172 5.89,22.172 1.516,21.915 -13.128,38.357 -29.021,35.809 -0.643,0.142 -1.312,0.214 -1.997,0.214 -0.151,0 -0.296,-0.003 -0.447,-0.01 14.678,6.5 32.914,-5.522 37.023,-27.017 0,0 2.464,-10.212 0.627,-22.292 -0.357,-1.745 -1.077,-4.278 -2.462,-6.975 -0.428,-0.757 -0.95,-1.634 -1.585,-2.663 0.007,0.004 0.015,0.011 0.024,0.023 -0.019,-0.029 -0.035,-0.06 -0.056,-0.087 -0.014,-0.022 -0.005,-0.032 -0.013,-0.051 -0.251,-0.441 -0.301,-1.096 -0.087,-1.573 0.255,-0.57 0.808,-0.934 1.427,-0.934 l 17.131,-0.005 c 0.487,-0.014 0.949,0.198 1.262,0.57 0,0 56.477,61.654 62.975,69.544 -2.484,-13.062 -7.462,-44.573 -12.089,-68.18 -0.022,-0.113 -0.035,-0.223 -0.035,-0.338 0,-0.359 0.12,-0.721 0.348,-1.008 0.303,-0.373 0.758,-0.592 1.235,-0.588 l 13.424,0.005 c 0.458,0.004 0.887,0.208 1.184,0.559 0,0 45.473,61.508 52.223,69.53 -2.807,-13.101 -7.551,-44.871 -12.186,-68.096 -0.022,-0.121 -0.041,-0.248 -0.041,-0.373 0,-0.355 0.114,-0.704 0.336,-0.985 0.297,-0.386 0.752,-0.654 1.23,-0.654 h 13.231 c 0.722,0 1.353,0.545 1.525,1.258 l 4.877,28.692 c 0.022,-1.004 -0.016,-1.801 -0.016,-1.801 -0.035,-2.686 -0.953,-5.397 -0.468,-8.117 1.789,-10.145 10.654,-19.596 20.179,-21.522 8.322,-1.524 17.223,0.604 26.003,6.121 -0.181,-0.966 -0.448,-2.421 -0.448,-2.421 -0.027,-0.132 -0.037,-0.265 -0.037,-0.393 0,-0.492 0.17,-0.967 0.481,-1.353 0.401,-0.493 0.998,-0.45 1.619,-0.452 l 10.779,-0.004 c 1.017,-0.005 1.888,0.398 2.074,1.414 l 9.735,52.529 z m -324.765,-34.812 c -2.447,-8.661 -9.854,-16.675 -17.744,-18.626 -5.889,-1.131 -11.108,-0.457 -14.182,1.565 -3.248,2.266 -5.045,6.004 -6.072,9.75 -0.406,1.72 -0.395,2.539 -0.395,3.802 0,7.884 4.161,15.483 11.8,21.305 4.393,3.125 10.371,4.308 15.6,3.084 2.954,-0.689 7.002,-2.486 9.525,-7.115 1.412,-2.514 2.155,-5.706 2.155,-8.819 0,-1.717 -0.224,-3.404 -0.687,-4.946 m 304.901,0 c -2.628,-8.616 -10.515,-16.907 -18.404,-18.856 -6.025,-1.01 -10.449,-0.227 -13.517,1.795 -3.253,2.266 -5.212,6.089 -6.14,9.75 -0.214,1.269 -0.328,2.539 -0.328,3.802 0,7.884 4.157,15.483 11.798,21.305 4.395,3.125 10.367,4.308 15.597,3.084 2.956,-0.689 7.001,-2.486 9.526,-7.115 1.412,-2.514 2.099,-5.706 2.099,-8.819 0,-1.717 -0.158,-3.409 -0.631,-4.946" /></g><g
           transform="translate(795.9852,72.1748)"
           id="g24"><path
             id="path26"
             style="fill:#e30613;fill-opacity:1;fill-rule:nonzero;stroke:none"
             d="m 0,0 c -0.402,0.481 -0.983,0.76 -1.601,0.76 0,0 -8.673,0.002 -12.21,0.002 0.655,3.817 3.386,18.266 3.386,18.266 0.02,0.12 0.029,0.242 0.029,0.362 0,0.496 -0.172,0.983 -0.493,1.368 -0.396,0.482 -0.98,0.758 -1.598,0.758 h -12.097 c -1.016,0 -1.887,-0.746 -2.059,-1.768 0,0 -2.981,-16.15 -3.467,-19.035 -1.07,-0.032 -2.953,-0.008 -2.953,-0.008 l -1.819,-0.007 -1.947,0.009 c -0.75,0.017 -1.425,-0.304 -1.804,-0.913 -0.382,0.584 -1.012,0.917 -1.718,0.919 L -51.108,0.711 -54.262,0.707 c -0.584,0 -1.142,-0.205 -1.539,-0.639 0,0 -9.782,-12.569 -15.515,-18.892 1.682,10.014 6.837,37.858 6.837,37.858 0.017,0.122 0.029,0.239 0.029,0.359 0,0.495 -0.172,0.982 -0.492,1.367 -0.397,0.478 -0.978,0.756 -1.592,0.756 l -11.896,0.027 c -1.022,0.004 -1.891,-0.737 -2.069,-1.758 -0.277,-1.634 -1.907,-9.448 -3.526,-19.193 -0.02,0.032 -0.035,0.064 -0.061,0.094 -0.413,0.479 -1.016,0.885 -1.64,0.867 -4.984,-0.15 -10.455,-2.222 -14.381,-4.792 l 0.253,1.537 c 0.109,0.621 -0.054,1.259 -0.452,1.746 -0.394,0.481 -0.981,0.649 -1.6,0.654 h -10.875 c -1.006,0.009 -1.877,-0.6 -2.077,-1.605 l -0.306,-1.678 -11.616,-64.5 c -0.115,-0.626 0.09,-1.184 0.494,-1.668 0.408,-0.486 1.037,-0.717 1.659,-0.707 l 5.368,-0.003 h 5.048 c 0.994,0 1.837,0.669 2.033,1.659 l 7.973,40.029 c 2.635,10.144 9.258,13.166 15.106,14.034 0.302,0.047 1.495,0.031 1.745,0.194 -4.018,-24.275 -8.764,-53.002 -8.84,-53.481 -0.102,-0.62 0.067,-1.203 0.462,-1.684 0.403,-0.475 0.985,-0.751 1.596,-0.751 h 11.698 c 0.918,0 1.725,0.564 2,1.45 0.355,1.165 3.412,17.649 5.093,27.567 4.324,-6.681 17.002,-28.081 17.002,-28.081 0.385,-0.598 1.04,-0.943 1.745,-0.943 l 13.045,-0.005 c 0.255,0 0.493,0.29 0.722,0.375 0.295,-0.148 0.618,-0.378 0.956,-0.375 h 13.602 c 1.012,0.007 1.873,0.719 2.046,1.729 0,0 9.162,50.209 9.723,53.509 2.755,0.005 13.07,0.017 13.07,0.017 1.018,0.003 1.885,0.743 2.058,1.763 l 1.834,10.725 c 0.022,0.125 0.03,0.245 0.03,0.364 C 0.488,-0.87 0.32,-0.384 0,0 m -41.852,-63.63 c -4.82,7.871 -18.529,30.82 -19.764,32.843 1.62,1.947 18.767,23.154 22.225,27.301 l -1.522,-8.216 c -0.114,-0.625 0.045,-1.262 0.444,-1.749 0.398,-0.487 0.987,-0.769 1.61,-0.769 h 5.926 c -0.603,-3.76 -7.124,-38.305 -8.919,-49.41" /></g><g
           transform="translate(289.9882,92.9077)"
           id="g28"><path
             id="path30"
             style="fill:#e30613;fill-opacity:1;fill-rule:nonzero;stroke:none"
             d="m 0,0 c -0.399,0.489 -0.992,0.784 -1.617,0.784 h -10.859 c -0.994,0 -1.85,-0.72 -2.056,-1.709 0,0 -3.747,-18.405 -5.018,-24.512 -2.419,2.203 -5.264,3.471 -7.88,4.612 l -1.101,0.487 c -0.123,0.052 -0.261,0.098 -0.393,0.128 -11.801,2.63 -23.647,-0.979 -33.353,-10.166 -5.746,-5.359 -9.863,-11.721 -12.194,-18.605 -0.265,5.772 -1.794,11.371 -3.837,15.54 -0.025,0.057 -0.052,0.106 -0.084,0.155 -5.685,9.553 -15.186,14.272 -27.473,13.649 -0.052,-0.002 -0.102,-0.006 -0.152,-0.013 -13.591,-1.698 -27.213,-10.868 -33.829,-23.931 -0.111,-0.199 -0.207,-0.413 -0.316,-0.614 l 10.318,57.269 c 0.115,0.477 0.01,1.026 -0.289,1.413 -0.297,0.384 -0.754,0.609 -1.236,0.609 h -14.135 c -0.448,0 -0.877,-0.242 -1.176,-0.581 0,0 -43.885,-57.999 -50.754,-65.879 2.025,9.893 11.358,64.513 11.358,64.513 0.024,0.109 0.032,0.215 0.032,0.326 0,0.362 -0.12,0.762 -0.352,1.051 -0.296,0.372 -0.745,0.59 -1.218,0.59 l -13.719,-0.02 c -0.452,0 -0.888,-0.245 -1.184,-0.592 L -289.6,-87.434 c -0.405,-0.472 -0.503,-1.145 -0.247,-1.709 0.257,-0.567 0.811,-1.065 1.425,-1.065 0,0 13.442,-0.022 17.48,0.015 0.483,0.004 0.947,0.224 1.256,0.6 0,0 55.251,63.566 61.752,71.46 -2.49,-13.065 -7.646,-46.527 -12.683,-70.096 -0.024,-0.111 -0.035,-0.227 -0.035,-0.342 0,-0.364 0.122,-0.718 0.351,-1.005 0.3,-0.376 0.753,-0.623 1.231,-0.62 l 13.424,0.005 c 0.454,0.002 0.887,0.251 1.181,0.605 0,0 45.912,63.521 52.664,71.543 -2.809,-13.102 -7.135,-46.889 -12.641,-70.186 -0.03,-0.123 -0.043,-0.25 -0.043,-0.371 0,-0.356 0.117,-0.703 0.337,-0.986 0.297,-0.383 0.753,-0.61 1.235,-0.61 h 13.015 c 0.722,0 1.35,0.531 1.524,1.243 l 4.976,26.991 c -0.061,-5.787 1.08,-11.456 3.494,-16.032 4.836,-8.567 13.537,-13.689 23.897,-14.096 14.9,0 29.099,9.083 35.422,22.6 0.308,0.663 0.263,1.442 -0.121,2.057 -0.386,0.619 -1.056,0.997 -1.78,0.997 h -11.145 c -0.598,0 -1.168,-0.261 -1.565,-0.715 -5.291,-6.006 -11.234,-9.128 -17.662,-9.277 -6.459,-0.161 -12.151,3.556 -14.533,9.476 -0.067,0.238 -0.213,0.759 -0.213,0.759 -0.34,1.161 -0.603,2.146 -0.603,2.935 0,0.224 0.037,0.423 0.081,0.616 2.365,0 50.006,0.021 50.006,0.021 0.536,0 1.035,0.207 1.416,0.56 -0.032,-2.686 0.19,-5.397 0.674,-8.117 1.792,-10.146 10.656,-19.596 20.182,-21.523 8.321,-1.526 17.22,0.605 26.002,6.121 -0.179,-0.965 -0.451,-2.421 -0.451,-2.421 -0.023,-0.131 -0.035,-0.264 -0.035,-0.392 0,-0.492 0.17,-0.968 0.484,-1.354 0.397,-0.493 0.993,-0.449 1.618,-0.449 l 10.777,0.007 c 1.014,-0.002 1.886,0.387 2.073,1.4 L 0.449,-1.756 C 0.564,-1.131 0.399,-0.489 0,0 m -123.38,-46.863 c 3.253,6.286 10.161,10.129 16.123,10.972 6.465,0.462 9.388,-1.12 12.203,-3.588 2.565,-2.604 3.787,-5.044 4.035,-7.404 -3.44,-0.03 -27.365,0.066 -32.361,0.02 m 100.673,-5.295 c -0.056,-2.117 -0.26,-3.19 -0.66,-4.746 -2.255,-8.758 -10.155,-16.802 -18.042,-18.753 -6.08,-1.205 -10.809,-0.403 -13.881,1.615 -3.25,2.268 -5.371,5.994 -6.147,9.777 -0.334,1.53 -0.366,2.567 -0.366,3.827 0,7.888 4.384,15.507 12.022,21.33 4.395,3.125 10.368,4.307 15.6,3.084 2.952,-0.691 6.592,-2.697 9.319,-7.205 1.485,-2.449 2.242,-5.656 2.155,-8.929" /></g><g
           transform="translate(293.4407,74.8945)"
           id="g32"><path
             id="path34"
             style="fill:#e30613;fill-opacity:1;fill-rule:nonzero;stroke:none"
             d="m 0,0 12.004,0.005 c 1.014,0 1.882,1.027 2.064,2.04 l 2.603,14.222 c 0.11,0.621 -0.053,1.257 -0.448,1.744 -0.396,0.484 -0.982,0.796 -1.604,0.801 L 2.527,18.8 C 1.518,18.81 0.646,17.999 0.448,16.991 L -2.068,2.841 C -2.189,2.214 -2.026,1.274 -1.627,0.777 -1.228,0.284 -0.631,0 0,0" /></g><g
           transform="translate(795.8904,94.1704)"
           id="g36"><path
             id="path38"
             style="fill:#e30613;fill-opacity:1;fill-rule:nonzero;stroke:none"
             d="m 0,0 c 4.04,0 7.393,-3.296 7.393,-7.55 0,-4.138 -3.285,-7.512 -7.393,-7.512 -4.114,0 -7.395,3.374 -7.395,7.512 C -7.395,-3.296 -4.074,0 0,0 m 0,-13.742 c 3.354,0 6.06,2.787 6.06,6.192 0,3.482 -2.706,6.193 -6.06,6.193 -3.32,0 -6.062,-2.711 -6.062,-6.193 0,-3.405 2.708,-6.192 6.062,-6.192 m -1.444,2.165 h -1.694 v 8.096 h 3.713 c 0.47,0 3.029,0 3.029,-2.418 0,-1.54 -1.081,-1.979 -1.475,-2.162 l 1.475,-3.516 H 1.802 l -1.298,3.224 h -1.948 z m 0,4.578 h 1.767 c 0.578,0 1.517,0.148 1.517,1.136 0,0.476 -0.328,1.063 -1.369,1.063 h -1.915 z" /></g></g></g></g></svg>